<svg width="213" height="126" viewBox="0 0 213 126" fill="none" xmlns="http://www.w3.org/2000/svg">
<path d="M191.741 55.5984C189.713 58.1774 187.508 60.09 185.124 61.3361C182.75 62.5701 180.37 63.068 177.983 62.8298C175.597 62.5916 173.343 61.6387 171.222 59.9713C169.149 58.3418 167.709 56.3908 166.902 54.1185C166.105 51.8341 165.999 49.4013 166.585 46.8202C167.193 44.2366 168.46 41.694 170.388 39.1924L171.88 37.2943C173.869 34.7635 176.067 32.8738 178.472 31.6251C180.877 30.3764 183.283 29.8699 185.692 30.1056C188.121 30.3387 190.372 31.27 192.445 32.8995C194.554 34.5574 196.008 36.5286 196.805 38.813C197.624 41.0949 197.705 43.547 197.047 46.1694C196.399 48.7797 195.066 51.3684 193.048 53.9353L191.741 55.5984ZM189.624 51.1849C192.078 48.0636 193.332 45.1787 193.386 42.5303C193.449 39.8699 192.354 37.6539 190.1 35.8822C187.907 34.158 185.519 33.636 182.937 34.3164C180.376 34.9942 177.913 36.8012 175.546 39.7374L174.025 41.6717C171.647 44.6966 170.409 47.5741 170.31 50.3043C170.233 53.0319 171.309 55.272 173.538 57.0247C175.78 58.7869 178.155 59.3377 180.663 58.6771C183.181 58.0044 185.656 56.1578 188.089 53.1372L189.624 51.1849Z" fill="white"/>
<path d="M110.339 31.5571C110.359 29.1198 110.852 26.9316 111.818 24.9925C112.799 23.0535 114.145 21.5621 115.855 20.5182C117.581 19.4744 119.539 18.9614 121.732 18.9791C125.119 19.0066 127.846 20.2014 129.912 22.5636C131.993 24.926 133.018 28.0539 132.986 31.9475L132.984 32.2464C132.964 34.6684 132.479 36.8413 131.528 38.7652C130.593 40.6738 129.255 42.1577 127.514 43.2167C125.788 44.2758 123.807 44.7963 121.569 44.7782C118.196 44.7508 115.469 43.556 113.388 41.1937C111.323 38.8314 110.305 35.7189 110.337 31.856L110.339 31.5571ZM114.612 32.0976C114.589 34.8568 115.208 37.077 116.466 38.7581C117.741 40.4394 119.451 41.2888 121.597 41.3061C123.758 41.3236 125.482 40.4945 126.768 38.8186C128.054 37.1274 128.709 34.7565 128.734 31.7061C128.756 28.9775 128.122 26.7649 126.833 25.0681C125.559 23.3562 123.849 22.4915 121.703 22.4741C119.603 22.4571 117.903 23.2788 116.601 24.9393C115.3 26.5997 114.637 28.9858 114.612 32.0976Z" fill="white"/>
<path d="M104.728 15.8575L94.3815 18.8166L102.588 47.5125L98.3659 48.7202L90.1589 20.0242L79.8345 22.977L78.8355 19.484L103.729 12.3645L104.728 15.8575Z" fill="white"/>
<path d="M39.8985 98.8187L36.781 112.494L44.6001 117.508L43.5883 121.947L13.7875 102.041L14.6461 98.2743L50.1349 93.2279L49.1281 97.6444L39.8985 98.8187ZM33.5352 110.387L36.065 99.2891L19.5301 101.369L33.5352 110.387Z" fill="white"/>
<path d="M38.0055 86.5562C34.6969 84.6528 32.4904 82.34 31.3859 79.6178C30.2682 76.888 30.4394 74.2541 31.8994 71.7162C33.3518 69.1915 35.366 67.6886 37.9418 67.2074L26.7005 60.7405L28.8218 57.0532L59.4364 74.6653L57.4871 78.0536L55.0719 76.9029C56.0305 79.4174 55.753 81.9902 54.2395 84.6211C52.8024 87.1192 50.6059 88.5702 47.6499 88.9742C44.7017 89.365 41.5798 88.6125 38.2845 86.7167L38.0055 86.5562ZM40.5453 83.1097C42.9902 84.5162 45.1941 85.112 47.157 84.8972C49.1198 84.6823 50.6134 83.6846 51.6377 81.9041C52.9831 79.5654 52.9156 77.2541 51.4354 74.97L41.5295 69.2713C38.862 69.2046 36.8709 70.314 35.5561 72.5995C34.5165 74.4066 34.4038 76.2164 35.2181 78.0289C36.0323 79.8414 37.808 81.535 40.5453 83.1097Z" fill="white"/>
<path d="M52.4512 63.1163C49.8542 60.319 48.431 57.4567 48.1817 54.5296C47.922 51.5913 48.865 49.126 51.0108 47.1339C53.1453 45.1522 55.514 44.3128 58.1169 44.6155L49.2931 35.1113L52.4106 32.217L76.4413 58.1007L73.5765 60.7604L71.61 58.9464C71.7815 61.632 70.7551 64.0074 68.5307 66.0725C66.4186 68.0333 63.8911 68.7693 60.948 68.2804C58.0161 67.781 55.2569 66.1383 52.6702 63.3522L52.4512 63.1163ZM55.8973 60.5759C57.8164 62.643 59.7452 63.8644 61.6837 64.24C63.6222 64.6157 65.3442 64.1048 66.8496 62.7071C68.8268 60.8715 69.4464 58.6437 68.7085 56.0239L60.933 47.6487C58.4047 46.7956 56.1745 47.266 54.2422 49.0599C52.7143 50.4784 52.0711 52.1738 52.3124 54.146C52.5537 56.1183 53.7487 58.2616 55.8973 60.5759Z" fill="white"/>
<path d="M138.067 45.7158L144.977 12.957L154.224 14.9075C157.074 15.5086 159.461 16.6701 161.385 18.392C163.309 20.1139 164.619 22.2623 165.313 24.8371C166.023 27.4151 166.067 30.2132 165.446 33.2312L165.005 35.3236C164.353 38.4135 163.182 40.9944 161.492 43.0662C159.816 45.1411 157.737 46.567 155.255 47.3437C152.787 48.1235 150.08 48.2184 147.134 47.6283L138.067 45.7158ZM148.547 17.4231L143.132 43.0946L147.677 44.0532C151.007 44.7556 153.812 44.2664 156.094 42.5856C158.39 40.908 159.942 38.1568 160.749 34.3319L161.152 32.4195C161.937 28.6997 161.668 25.6272 160.347 23.2021C159.044 20.7652 156.79 19.1932 153.587 18.4861L148.547 17.4231Z" fill="white"/>
</svg>
